# xmcd
#
# Track frame offsets:
#	150
#	18724
#	27999
#	45952
#	57712
#	69359
#	81944
#	93722
#	111219
#	124777
#	136832
#	157524
#	170169
#	180554
#	197702
#	217542
#	232460
#	243369
#
# Disc length: 3447 seconds
#
# Revision: 1
# Processed by: cddbd v1.5.2PL0 Copyright (c) Steve Scherf et al.
# Submitted via: audiograbber 1.80.04
#
DISCID=f60d7512
DTITLE=Various Artist - Nosso Amor - Seleção de Ouro - 20 Sucessos - Volume 2
DYEAR=2001
DGENRE=Soundtrack
TTITLE0=Morris Albert - I Love You
TTITLE1=Andy Grawn - I'd Rather Hurt Myself
TTITLE2=Os Skaters - Lovin' You - Forever - Mandy
TTITLE3=The Jordans - L'amour Est Bleu
TTITLE4=Os Condors - If
TTITLE5=The Marvelous - Ben
TTITLE6=Malcolm Dodds - Everybody's Talkin
TTITLE7=Os Skaters - Take My Heart - One Day In Your Life - More Than You Know
TTITLE8=Orquestra Milionarios Del Rio - Amore Scusami
TTITLE9=Night Strings Orchestra - Je T'aime Moi Non Plus
TTITLE10=Black Best - You Make Me Feel Brand New
TTITLE11=Benny And Jennie - Stop, Look, Listen
TTITLE12=Os Carbonos - What A Wonderfull World
TTITLE13=Wolfmann Jack - I'm Falling In Love With You
TTITLE14=Light Reflections - That Love
TTITLE15=Terry Winter - You'll Notice Me
TTITLE16=Dave Gordon - Mona Lisa
TTITLE17=Lee Jackson - Hey Girl
EXTD=
EXTT0=
EXTT1=
EXTT2=
EXTT3=
EXTT4=
EXTT5=
EXTT6=
EXTT7=
EXTT8=
EXTT9=
EXTT10=
EXTT11=
EXTT12=
EXTT13=
EXTT14=
EXTT15=
EXTT16=
EXTT17=
PLAYORDER=
